PathFileType	4	(X/Y/Z)	SUBJ94_0_static_RCNL2025.trc
DataRate	CameraRate	NumFrames	NumMarkers	Units	OrigDataRate	OrigDataStartFrame	OrigNumFrames
100	100	13	25	mm	100	1	227
Frame#	Time	R_Shoulder			L_Shoulder			C7			J_Notch			R_Elbow			L_Elbow			R_Wrist			L_Wrist			R_Asis			L_Asis			Sacral			Thoracic			Sternum			R_Thigh_Lateral			R_Knee_Lateral			R_Shank_Lateral			R_Ankle_Lateral			R_Heel			R_Toe			L_Thigh_Lateral			L_Knee_Lateral			L_Shank_Lateral			L_Ankle_Lateral			L_Heel			L_Toe		
		X1	Y1	Z1	X2	Y2	Z2	X3	Y3	Z3	X4	Y4	Z4	X5	Y5	Z5	X6	Y6	Z6	X7	Y7	Z7	X8	Y8	Z8	X9	Y9	Z9	X10	Y10	Z10	X11	Y11	Z11	X12	Y12	Z12	X13	Y13	Z13	X14	Y14	Z14	X15	Y15	Z15	X16	Y16	Z16	X17	Y17	Z17	X18	Y18	Z18	X19	Y19	Z19	X20	Y20	Z20	X21	Y21	Z21	X22	Y22	Z22	X23	Y23	Z23	X24	Y24	Z24	X25	Y25	Z25
1	0.00000000	-295.121918	1270.348389	-56.959419	-277.287048	1283.341431	-434.328400	-339.340637	1352.497314	-243.767273	-225.194717	1263.516602	-248.196716	-363.933899	1017.663757	57.704296	-343.397095	1029.161743	-548.755676	-341.361603	803.644958	121.498116	-302.371201	802.053101	-582.034912	-218.130493	881.896301	-117.566292	-199.475479	872.297913	-344.226501	-398.993805	939.808472	-255.608856	-401.288940	1149.378174	-256.033752	-185.546799	1070.480103	-239.813522	-308.997192	537.590088	-58.866646	-326.982086	444.465057	-116.666832	-349.050079	261.381500	-75.477982	-361.006805	55.828217	-158.327133	-404.320465	52.509445	-206.287796	-226.411926	37.931660	-188.060883	-292.190613	535.553589	-428.949402	-319.653717	439.392242	-373.886963	-335.818665	259.596802	-437.139862	-358.877716	56.827721	-331.834076	-399.429535	46.577099	-283.554871	-233.245407	42.543343	-300.238617
2	0.01000000	-295.076630	1270.416992	-56.990967	-277.288605	1283.280029	-434.354553	-339.256592	1352.464600	-243.817093	-225.099045	1263.525269	-248.300903	-363.860382	1017.670105	57.777473	-343.282684	1029.115112	-548.848389	-340.967468	803.665558	121.642555	-302.273224	801.927124	-581.952332	-218.154541	881.836792	-117.528564	-199.491882	872.307739	-344.199158	-398.966919	939.906067	-255.515671	-401.308472	1149.365967	-256.009827	-185.467560	1070.485229	-239.889359	-308.939636	537.585754	-58.809132	-326.971985	444.442169	-116.653656	-349.041565	261.258514	-75.590363	-361.038910	55.847118	-158.302444	-404.323059	52.511116	-206.315872	-226.362427	37.922276	-188.018143	-292.200348	535.608582	-428.902985	-319.655396	439.419525	-373.872498	-335.821075	259.596466	-437.132172	-358.855591	56.820576	-331.853760	-399.372681	46.530720	-283.540009	-233.181549	42.482311	-300.192902
3	0.02000000	-295.028717	1270.419800	-56.937988	-277.241058	1283.219604	-434.346741	-339.253418	1352.453979	-243.846802	-225.088455	1263.529663	-248.333893	-363.752014	1017.696960	57.831131	-343.248169	1029.035156	-548.817322	-340.808105	803.712555	121.813393	-302.137665	801.796387	-581.805695	-218.038147	881.820251	-117.463585	-199.493668	872.307556	-344.197418	-398.884705	939.796692	-255.465698	-401.309265	1149.365967	-256.009094	-185.342392	1070.489746	-239.835754	-308.892365	537.538574	-58.820450	-326.991486	444.476379	-116.659187	-349.065247	261.383423	-75.465790	-361.014282	55.832478	-158.323303	-404.326691	52.508095	-206.288040	-226.359756	37.907341	-188.034561	-292.068298	535.605103	-428.883759	-319.662750	439.406006	-373.869965	-335.824707	259.599945	-437.153046	-358.863037	56.808136	-331.844452	-399.374573	46.541771	-283.530762	-233.163620	42.504662	-300.211273
4	0.03000000	-295.029297	1270.418945	-56.933914	-277.256073	1283.158203	-434.374023	-339.262177	1352.409668	-243.830093	-225.121689	1263.459106	-248.326645	-363.695160	1017.770142	57.896847	-343.186920	1028.926147	-548.862122	-340.707001	803.771484	121.965366	-302.090729	801.717072	-581.675171	-217.983704	881.893005	-117.439194	-199.466217	872.359741	-344.171600	-398.766724	939.808716	-255.419098	-401.257202	1149.288574	-255.933395	-185.329468	1070.492065	-239.828262	-308.910339	537.554688	-58.776665	-326.980743	444.430237	-116.647789	-349.144012	261.249786	-75.504135	-361.096588	55.771912	-158.276291	-404.329529	52.509602	-206.312851	-226.360123	37.904190	-188.034576	-292.193817	535.581665	-428.878540	-319.663361	439.404510	-373.870026	-335.878204	259.592163	-437.106323	-358.891632	56.778114	-331.817383	-399.408600	46.581085	-283.499481	-233.182175	42.470325	-300.155212
5	0.04000000	-294.999664	1270.470215	-56.858303	-277.242065	1283.051147	-434.384796	-339.140228	1352.330688	-243.920807	-224.947937	1263.459473	-248.371414	-363.575775	1017.745605	57.951744	-343.014404	1028.885498	-548.733154	-340.604050	803.816772	122.112164	-302.003830	801.594635	-581.569733	-217.792465	881.889954	-117.475517	-199.365295	872.314819	-344.075958	-398.696686	939.797119	-255.334259	-401.179108	1149.275879	-255.968643	-185.223022	1070.493774	-239.791016	-308.970581	537.487854	-58.747040	-327.104767	444.402039	-116.560989	-349.116089	261.176483	-75.521317	-361.088867	55.760544	-158.285019	-404.319733	52.484886	-206.290665	-226.405731	37.909454	-188.049088	-292.146240	535.593323	-428.859650	-319.599457	439.363556	-373.821320	-335.984924	259.612000	-437.134308	-358.897186	56.746433	-331.818268	-399.377228	46.534584	-283.537231	-233.188171	42.476826	-300.161621
6	0.05000000	-294.950897	1270.518555	-56.843109	-277.228851	1283.040283	-434.423615	-339.120331	1352.333740	-243.910980	-224.930191	1263.413696	-248.335434	-363.473419	1017.828003	58.017700	-342.921600	1028.837646	-548.790039	-340.436905	803.861267	122.204929	-301.883896	801.505249	-581.534576	-217.755035	881.899048	-117.458954	-199.284637	872.314392	-344.135590	-398.633820	939.769104	-255.272858	-401.111328	1149.264648	-255.917358	-185.178680	1070.546631	-239.765976	-308.899506	537.506714	-58.680637	-326.960388	444.377136	-116.545250	-349.041077	261.170105	-75.494843	-361.049072	55.740452	-158.314926	-404.362305	52.544727	-206.251373	-226.370865	37.912140	-188.017715	-292.126434	535.550232	-428.865753	-319.587830	439.380005	-373.791443	-335.971313	259.618744	-437.172546	-358.889771	56.734913	-331.817657	-399.407745	46.561447	-283.451874	-233.177734	42.474377	-300.195587
7	0.06000000	-294.895050	1270.593628	-56.884964	-277.166931	1282.987183	-434.419128	-339.129913	1352.395264	-243.908554	-224.947601	1263.390381	-248.324783	-363.390656	1017.916748	58.083046	-342.808960	1028.787231	-548.757935	-340.350830	803.908295	122.378510	-301.706772	801.467010	-581.453949	-217.767715	881.891541	-117.453461	-199.275269	872.299744	-344.146912	-398.628967	939.781860	-255.273758	-401.113281	1149.270142	-255.881699	-185.176392	1070.567627	-239.745071	-308.840363	537.583923	-58.696388	-326.924377	444.443970	-116.546555	-349.004333	261.278595	-75.517708	-361.108948	55.781635	-158.270447	-404.328491	52.530643	-206.271713	-226.323013	37.907005	-188.000778	-292.037323	535.596741	-428.882019	-319.568054	439.330444	-373.790558	-335.915344	259.696136	-437.153168	-358.866943	56.765018	-331.828552	-399.380035	46.568478	-283.524658	-233.180984	42.482319	-300.194672
8	0.07000000	-294.816010	1270.607178	-56.877182	-277.057343	1282.977051	-434.452087	-339.119537	1352.413330	-243.949982	-224.953430	1263.371094	-248.323654	-363.165161	1017.897583	58.165501	-342.776886	1028.790771	-548.831665	-340.206177	803.949097	122.486984	-301.669357	801.405487	-581.388336	-217.845612	881.906799	-117.383987	-199.237137	872.298096	-344.040100	-398.567627	939.792358	-255.188309	-401.050415	1149.275513	-255.826843	-185.065796	1070.569702	-239.705673	-308.741272	537.568420	-58.659252	-326.884064	444.434937	-116.576630	-349.029663	261.323822	-75.481270	-360.984344	55.810883	-158.357422	-404.319763	52.543316	-206.275528	-226.403687	37.926487	-188.061020	-292.026245	535.601379	-428.875305	-319.564362	439.367920	-373.767975	-335.912933	259.704559	-437.154846	-358.871674	56.850361	-331.864471	-399.435120	46.583309	-283.584656	-233.180939	42.486443	-300.209198
9	0.08000000	-294.816376	1270.601196	-56.845589	-276.986664	1282.950562	-434.409760	-339.054810	1352.336548	-243.979752	-224.788849	1263.523926	-248.298340	-363.073059	1017.905396	58.224892	-342.667999	1028.702393	-548.737000	-340.046005	804.004456	122.626572	-301.075943	801.718445	-581.394745	-217.673111	881.899963	-117.407227	-199.164627	872.302368	-344.095367	-398.442291	939.790955	-255.142151	-401.063354	1149.298828	-255.801834	-185.019424	1070.640503	-239.682281	-308.762177	537.519287	-58.629669	-326.941833	444.387665	-116.540031	-348.997772	261.258331	-75.442497	-361.001068	55.814663	-158.227325	-404.320251	52.563599	-206.275009	-226.319412	37.934734	-187.997345	-291.953949	535.605347	-428.778625	-319.568634	439.415619	-373.762024	-335.887482	259.671906	-437.106415	-358.900909	56.823696	-331.829987	-399.406921	46.610668	-283.465607	-233.162598	42.473774	-300.163452
10	0.09000000	-294.729340	1270.604492	-56.880692	-276.981476	1282.934448	-434.417664	-339.051422	1352.360229	-243.965927	-224.704010	1263.481934	-248.336121	-362.953064	1017.977356	58.254509	-342.660309	1028.670288	-548.698059	-339.954269	804.045654	122.783779	-301.755203	800.938629	-580.900452	-217.626236	881.928833	-117.395378	-199.150589	872.301147	-344.086853	-398.463531	939.736328	-255.113464	-401.073517	1149.264404	-255.784531	-184.919022	1070.626099	-239.615524	-308.808075	537.537842	-58.582279	-326.941986	444.402161	-116.541199	-349.024536	261.335388	-75.410004	-361.023010	55.835823	-158.300278	-404.384674	52.567001	-206.211990	-226.357834	37.912441	-187.967804	-291.956268	535.601990	-428.827118	-319.487183	439.439728	-373.681274	-335.818542	259.686493	-437.110931	-358.937164	56.826309	-331.741425	-399.403351	46.593174	-283.503571	-233.159698	42.487579	-300.151459
11	0.10000000	-294.648895	1270.620850	-56.847374	-276.851501	1282.931396	-434.365112	-338.964111	1352.303955	-243.918869	-224.706360	1263.468994	-248.346176	-362.823517	1018.010803	58.407337	-342.621735	1028.679688	-548.696594	-339.871201	804.082123	122.896641	-301.832993	800.826324	-580.776459	-217.515137	881.915344	-117.358009	-199.079742	872.248901	-344.002289	-398.402740	939.737305	-255.030106	-400.989929	1149.299561	-255.852386	-184.908112	1070.642578	-239.612106	-308.812408	537.554626	-58.577396	-326.910614	444.416870	-116.438286	-348.985870	261.243866	-75.449356	-360.960022	55.844582	-158.254211	-404.392029	52.559708	-206.217880	-226.346207	37.885418	-187.977814	-291.943878	535.611084	-428.775085	-319.402069	439.431976	-373.667938	-335.804871	259.720764	-437.124878	-358.839996	56.806599	-331.868103	-399.364227	46.628109	-283.495331	-233.168976	42.489639	-300.155884
12	0.11000000	-294.545746	1270.619019	-56.799355	-276.815979	1282.931763	-434.440521	-338.864349	1352.286865	-244.006775	-224.601181	1263.450195	-248.304993	-362.667969	1018.044556	58.455864	-342.518372	1028.651611	-548.695496	-339.717545	804.119965	123.031734	-301.798386	800.827148	-580.823517	-217.547928	881.897461	-117.260719	-199.126526	872.229675	-343.934906	-398.369415	939.811157	-255.053650	-400.920410	1149.314697	-255.760117	-184.810913	1070.584351	-239.628738	-308.736328	537.598389	-58.596195	-326.814423	444.468140	-116.503105	-349.027344	261.251923	-75.444656	-361.039581	55.849373	-158.284912	-404.326447	52.580429	-206.282654	-226.312393	37.928753	-187.996979	-291.950653	535.597046	-428.799591	-319.478851	439.430420	-373.678772	-335.809570	259.724548	-437.121613	-358.901550	56.826878	-331.766754	-399.396179	46.649555	-283.462463	-233.173218	42.505226	-300.187347
13	0.12000000	-294.493713	1270.635010	-56.819073	-276.751862	1282.840454	-434.432465	-338.866089	1352.353271	-243.973343	-224.608963	1263.383423	-248.299957	-362.520874	1018.133301	58.588417	-342.479980	1028.670044	-548.742310	-339.603058	804.152161	123.160755	-301.762405	800.824738	-580.839813	-217.518524	881.914001	-117.320007	-198.973358	872.228577	-343.928650	-398.369781	939.814270	-255.057220	-400.900696	1149.299683	-255.818405	-184.810959	1070.577637	-239.604614	-308.634827	537.593079	-58.560970	-326.882629	444.438812	-116.422966	-349.046204	261.264618	-75.431816	-361.016327	55.906616	-158.298065	-404.362488	52.636612	-206.250443	-226.301147	37.947945	-187.975128	-291.869507	535.577881	-428.749664	-319.415558	439.426239	-373.674683	-335.795685	259.735413	-437.126526	-358.870972	56.830830	-331.790527	-399.340332	46.641483	-283.487579	-233.156998	42.473629	-300.173218
